<mxfile host="app.diagrams.net" modified="2023-06-29T14:14:09.799Z" agent="Mozilla/5.0 (Macintosh; Intel Mac OS X 10_15_7) AppleWebKit/537.36 (KHTML, like Gecko) Chrome/110.0.0.0 Safari/537.36" version="21.2.1" etag="UcIdnRedKifFVjnxasP8" type="github">
  <diagram name="Page-1" id="RZ-sbcYPbZvdfeO4JO4t">
    <mxGraphModel>
      <root>
        <mxCell id="0" />
        <mxCell id="1" parent="0" />
      </root>
    </mxGraphModel>
  </diagram>
</mxfile>
